<?xml version="1.0" encoding="UTF-8" standalone="no"?>
<!-- Created with Inkscape (http://www.inkscape.org/) -->

<svg
   xmlns:dc="http://purl.org/dc/elements/1.1/"
   xmlns:cc="http://creativecommons.org/ns#"
   xmlns:rdf="http://www.w3.org/1999/02/22-rdf-syntax-ns#"
   xmlns:svg="http://www.w3.org/2000/svg"
   xmlns="http://www.w3.org/2000/svg"
   xmlns:sodipodi="http://sodipodi.sourceforge.net/DTD/sodipodi-0.dtd"
   xmlns:inkscape="http://www.inkscape.org/namespaces/inkscape"
   width="1000px"
   height="1000px"
   viewBox="0 0 1000 1000"
   version="1.1"
   id="svg8"
   inkscape:version="0.92.4 (5da689c313, 2019-01-14)"
   sodipodi:docname="Icons.svg">
  <defs
     id="defs2" />
  <sodipodi:namedview
     id="base"
     pagecolor="#ffffff"
     bordercolor="#666666"
     borderopacity="1.0"
     inkscape:pageopacity="0.0"
     inkscape:pageshadow="2"
     inkscape:zoom="0.65512398"
     inkscape:cx="636.91169"
     inkscape:cy="230.67072"
     inkscape:document-units="px"
     inkscape:current-layer="layer1"
     showgrid="false"
     inkscape:window-width="1920"
     inkscape:window-height="1017"
     inkscape:window-x="-8"
     inkscape:window-y="-8"
     inkscape:window-maximized="1" />
  <metadata
     id="metadata5">
    <rdf:RDF>
      <cc:Work
         rdf:about="">
        <dc:format>image/svg+xml</dc:format>
        <dc:type
           rdf:resource="http://purl.org/dc/dcmitype/StillImage" />
        <dc:title></dc:title>
      </cc:Work>
    </rdf:RDF>
  </metadata>
  <g
     inkscape:label="Layer 1"
     inkscape:groupmode="layer"
     id="layer1">
    <g
       id="g875"
       transform="matrix(0.54466231,0,0,0.54466231,372.16213,303.96033)"
       style="stroke-width:1.83599997;fill:#ce1919;fill-opacity:1"
       inkscape:export-filename="P:\Solutions\F0019.PikkaLang\Design\Images\PNG\Quit.png"
       inkscape:export-xdpi="12.288"
       inkscape:export-ydpi="12.288">
      <g
         id="g818"
         style="stroke-width:1.83599997;fill:#ce1919;fill-opacity:1">
	<g
   id="exit-to-app"
   style="stroke-width:1.83599997;fill:#ce1919;fill-opacity:1">
		<path
   id="path815"
   d="m 181.05,321.3 35.7,35.7 127.5,-127.5 -127.5,-127.5 -35.7,35.7 66.3,66.3 H 0 v 51 H 247.35 Z M 408,0 H 51 C 22.95,0 0,22.95 0,51 V 153 H 51 V 51 H 408 V 408 H 51 V 306 H 0 v 102 c 0,28.05 22.95,51 51,51 h 357 c 28.05,0 51,-22.95 51,-51 V 51 C 459,22.95 436.05,0 408,0 Z"
   inkscape:connector-curvature="0"
   style="stroke-width:1.83599997;fill:#ce1919;fill-opacity:1" />

	</g>

</g>
      <g
         id="g820"
         style="stroke-width:1.83599997;fill:#ce1919;fill-opacity:1">
</g>
      <g
         id="g822"
         style="stroke-width:1.83599997;fill:#ce1919;fill-opacity:1">
</g>
      <g
         id="g824"
         style="stroke-width:1.83599997;fill:#ce1919;fill-opacity:1">
</g>
      <g
         id="g826"
         style="stroke-width:1.83599997;fill:#ce1919;fill-opacity:1">
</g>
      <g
         id="g828"
         style="stroke-width:1.83599997;fill:#ce1919;fill-opacity:1">
</g>
      <g
         id="g830"
         style="stroke-width:1.83599997;fill:#ce1919;fill-opacity:1">
</g>
      <g
         id="g832"
         style="stroke-width:1.83599997;fill:#ce1919;fill-opacity:1">
</g>
      <g
         id="g834"
         style="stroke-width:1.83599997;fill:#ce1919;fill-opacity:1">
</g>
      <g
         id="g836"
         style="stroke-width:1.83599997;fill:#ce1919;fill-opacity:1">
</g>
      <g
         id="g838"
         style="stroke-width:1.83599997;fill:#ce1919;fill-opacity:1">
</g>
      <g
         id="g840"
         style="stroke-width:1.83599997;fill:#ce1919;fill-opacity:1">
</g>
      <g
         id="g842"
         style="stroke-width:1.83599997;fill:#ce1919;fill-opacity:1">
</g>
      <g
         id="g844"
         style="stroke-width:1.83599997;fill:#ce1919;fill-opacity:1">
</g>
      <g
         id="g846"
         style="stroke-width:1.83599997;fill:#ce1919;fill-opacity:1">
</g>
      <g
         id="g848"
         style="stroke-width:1.83599997;fill:#ce1919;fill-opacity:1">
</g>
    </g>
    <g
       id="g941"
       transform="matrix(0.68410309,0,0,0.57008123,-15.339415,4.2280464)"
       style="stroke-width:1.60129321;fill:#dadada;fill-opacity:1"
       inkscape:export-filename="P:\Solutions\F0019.PikkaLang\Design\Images\PNG\LanguageNew.png"
       inkscape:export-xdpi="12.288"
       inkscape:export-ydpi="12.288">
      <g
         id="g883"
         style="stroke-width:1.60129321;fill:#dadada;fill-opacity:1">
	<g
   id="g881"
   style="stroke-width:1.60129321;fill:#dadada;fill-opacity:1">
		<path
   id="path877"
   d="M 382.58,108.493 293.502,19.412 C 283.981,9.895 271.415,3.706 255.81,0.854 v 145.324 h 145.326 c -2.855,-15.612 -9.045,-28.172 -18.556,-37.685 z"
   inkscape:connector-curvature="0"
   style="stroke-width:1.60129321;fill:#dadada;fill-opacity:1" />

		<path
   id="path879"
   d="m 246.676,182.72 c -7.617,0 -14.089,-2.663 -19.417,-7.993 -5.33,-5.327 -7.992,-11.799 -7.992,-19.414 V 0 H 63.953 C 56.341,0 49.869,2.663 44.54,7.993 39.21,13.32 36.546,19.792 36.546,27.407 v 383.719 c 0,7.617 2.664,14.089 7.994,19.417 5.33,5.325 11.801,7.991 19.414,7.991 h 310.633 c 7.611,0 14.079,-2.666 19.407,-7.991 5.328,-5.332 7.994,-11.8 7.994,-19.417 V 182.72 Z"
   inkscape:connector-curvature="0"
   style="stroke-width:1.60129321;fill:#dadada;fill-opacity:1" />

	</g>

</g>
      <g
         id="g885"
         style="stroke-width:1.60129321;fill:#dadada;fill-opacity:1">
</g>
      <g
         id="g887"
         style="stroke-width:1.60129321;fill:#dadada;fill-opacity:1">
</g>
      <g
         id="g889"
         style="stroke-width:1.60129321;fill:#dadada;fill-opacity:1">
</g>
      <g
         id="g891"
         style="stroke-width:1.60129321;fill:#dadada;fill-opacity:1">
</g>
      <g
         id="g893"
         style="stroke-width:1.60129321;fill:#dadada;fill-opacity:1">
</g>
      <g
         id="g895"
         style="stroke-width:1.60129321;fill:#dadada;fill-opacity:1">
</g>
      <g
         id="g897"
         style="stroke-width:1.60129321;fill:#dadada;fill-opacity:1">
</g>
      <g
         id="g899"
         style="stroke-width:1.60129321;fill:#dadada;fill-opacity:1">
</g>
      <g
         id="g901"
         style="stroke-width:1.60129321;fill:#dadada;fill-opacity:1">
</g>
      <g
         id="g903"
         style="stroke-width:1.60129321;fill:#dadada;fill-opacity:1">
</g>
      <g
         id="g905"
         style="stroke-width:1.60129321;fill:#dadada;fill-opacity:1">
</g>
      <g
         id="g907"
         style="stroke-width:1.60129321;fill:#dadada;fill-opacity:1">
</g>
      <g
         id="g909"
         style="stroke-width:1.60129321;fill:#dadada;fill-opacity:1">
</g>
      <g
         id="g911"
         style="stroke-width:1.60129321;fill:#dadada;fill-opacity:1">
</g>
      <g
         id="g913"
         style="stroke-width:1.60129321;fill:#dadada;fill-opacity:1">
</g>
    </g>
    <g
       id="g1007"
       transform="matrix(0.4660171,0,0,0.62188745,285.47563,-41.799616)"
       style="stroke-width:1.85756147;fill:#dadada;fill-opacity:1"
       inkscape:export-filename="P:\Solutions\F0019.PikkaLang\Design\Images\PNG\LanguageLoad.png"
       inkscape:export-xdpi="12.288"
       inkscape:export-ydpi="12.288">
      <g
         id="g949"
         style="stroke-width:1.85756147;fill:#dadada;fill-opacity:1">
	<g
   id="g947"
   style="stroke-width:1.85756147;fill:#dadada;fill-opacity:1">
		<path
   id="path943"
   d="m 144.752,263.52 c 19.603,-9.038 38.354,-13.559 56.243,-13.559 h 237.548 v -45.683 c 0,-17.511 -6.283,-32.555 -18.85,-45.118 -12.565,-12.562 -27.596,-18.842 -45.11,-18.842 H 219.266 v -9.136 c 0,-17.511 -6.28,-32.548 -18.842,-45.107 -12.563,-12.562 -27.6,-18.846 -45.111,-18.846 h -91.36 c -17.511,0 -32.548,6.283 -45.111,18.846 C 6.279,98.635 0,113.672 0,131.183 v 274.084 c 0,0.764 0.049,1.955 0.144,3.576 0.094,1.615 0.144,2.807 0.144,3.566 L 1.714,410.705 97.93,297.637 c 11.61,-13.706 27.218,-25.081 46.822,-34.117 z"
   inkscape:connector-curvature="0"
   style="stroke-width:1.85756147;fill:#dadada;fill-opacity:1" />

		<path
   id="path945"
   d="m 528.898,290.214 c -5.041,-2.478 -10.797,-3.72 -17.272,-3.72 H 200.995 c -12.562,0 -26.219,3.381 -40.968,10.14 -14.75,6.766 -26.219,14.986 -34.401,24.701 l -95.93,113.059 c -5.902,6.662 -8.853,12.945 -8.853,18.849 0,5.708 2.523,9.802 7.566,12.272 5.043,2.478 10.8,3.716 17.273,3.716 h 310.64 c 12.56,0 26.21,-3.381 40.963,-10.136 14.75,-6.756 26.214,-14.989 34.399,-24.701 l 95.931,-113.059 c 5.899,-6.663 8.846,-12.939 8.846,-18.849 0.004,-5.707 -2.515,-9.797 -7.563,-12.272 z"
   inkscape:connector-curvature="0"
   style="stroke-width:1.85756147;fill:#dadada;fill-opacity:1" />

	</g>

</g>
      <g
         id="g951"
         style="stroke-width:1.85756147;fill:#dadada;fill-opacity:1">
</g>
      <g
         id="g953"
         style="stroke-width:1.85756147;fill:#dadada;fill-opacity:1">
</g>
      <g
         id="g955"
         style="stroke-width:1.85756147;fill:#dadada;fill-opacity:1">
</g>
      <g
         id="g957"
         style="stroke-width:1.85756147;fill:#dadada;fill-opacity:1">
</g>
      <g
         id="g959"
         style="stroke-width:1.85756147;fill:#dadada;fill-opacity:1">
</g>
      <g
         id="g961"
         style="stroke-width:1.85756147;fill:#dadada;fill-opacity:1">
</g>
      <g
         id="g963"
         style="stroke-width:1.85756147;fill:#dadada;fill-opacity:1">
</g>
      <g
         id="g965"
         style="stroke-width:1.85756147;fill:#dadada;fill-opacity:1">
</g>
      <g
         id="g967"
         style="stroke-width:1.85756147;fill:#dadada;fill-opacity:1">
</g>
      <g
         id="g969"
         style="stroke-width:1.85756147;fill:#dadada;fill-opacity:1">
</g>
      <g
         id="g971"
         style="stroke-width:1.85756147;fill:#dadada;fill-opacity:1">
</g>
      <g
         id="g973"
         style="stroke-width:1.85756147;fill:#dadada;fill-opacity:1">
</g>
      <g
         id="g975"
         style="stroke-width:1.85756147;fill:#dadada;fill-opacity:1">
</g>
      <g
         id="g977"
         style="stroke-width:1.85756147;fill:#dadada;fill-opacity:1">
</g>
      <g
         id="g979"
         style="stroke-width:1.85756147;fill:#dadada;fill-opacity:1">
</g>
    </g>
    <g
       id="g1069"
       transform="matrix(0.54466231,0,0,0.54466231,552.99547,17.222873)"
       style="stroke-width:1.83599997;fill:#dadada;fill-opacity:1"
       inkscape:export-filename="P:\Solutions\F0019.PikkaLang\Design\Images\PNG\LanguageSave.png"
       inkscape:export-xdpi="12.288"
       inkscape:export-ydpi="12.288">
      <g
         id="g1012"
         style="stroke-width:1.83599997;fill:#dadada;fill-opacity:1">
	<g
   id="save"
   style="stroke-width:1.83599997;fill:#dadada;fill-opacity:1">
		<path
   id="path1009"
   d="M 357,0 H 51 C 22.95,0 0,22.95 0,51 v 357 c 0,28.05 22.95,51 51,51 h 357 c 28.05,0 51,-22.95 51,-51 V 102 Z M 229.5,408 c -43.35,0 -76.5,-33.15 -76.5,-76.5 0,-43.35 33.15,-76.5 76.5,-76.5 43.35,0 76.5,33.15 76.5,76.5 0,43.35 -33.15,76.5 -76.5,76.5 z M 306,153 H 51 V 51 h 255 z"
   inkscape:connector-curvature="0"
   style="stroke-width:1.83599997;fill:#dadada;fill-opacity:1" />

	</g>

</g>
      <g
         id="g1014"
         style="stroke-width:1.83599997;fill:#dadada;fill-opacity:1">
</g>
      <g
         id="g1016"
         style="stroke-width:1.83599997;fill:#dadada;fill-opacity:1">
</g>
      <g
         id="g1018"
         style="stroke-width:1.83599997;fill:#dadada;fill-opacity:1">
</g>
      <g
         id="g1020"
         style="stroke-width:1.83599997;fill:#dadada;fill-opacity:1">
</g>
      <g
         id="g1022"
         style="stroke-width:1.83599997;fill:#dadada;fill-opacity:1">
</g>
      <g
         id="g1024"
         style="stroke-width:1.83599997;fill:#dadada;fill-opacity:1">
</g>
      <g
         id="g1026"
         style="stroke-width:1.83599997;fill:#dadada;fill-opacity:1">
</g>
      <g
         id="g1028"
         style="stroke-width:1.83599997;fill:#dadada;fill-opacity:1">
</g>
      <g
         id="g1030"
         style="stroke-width:1.83599997;fill:#dadada;fill-opacity:1">
</g>
      <g
         id="g1032"
         style="stroke-width:1.83599997;fill:#dadada;fill-opacity:1">
</g>
      <g
         id="g1034"
         style="stroke-width:1.83599997;fill:#dadada;fill-opacity:1">
</g>
      <g
         id="g1036"
         style="stroke-width:1.83599997;fill:#dadada;fill-opacity:1">
</g>
      <g
         id="g1038"
         style="stroke-width:1.83599997;fill:#dadada;fill-opacity:1">
</g>
      <g
         id="g1040"
         style="stroke-width:1.83599997;fill:#dadada;fill-opacity:1">
</g>
      <g
         id="g1042"
         style="stroke-width:1.83599997;fill:#dadada;fill-opacity:1">
</g>
    </g>
    <g
       id="g1135"
       transform="matrix(0.54945111,0,0,0.55038712,43.093324,300.42247)"
       style="stroke-width:1.81844985;fill:#dadada;fill-opacity:1"
       inkscape:export-filename="P:\Solutions\F0019.PikkaLang\Design\Images\PNG\Settings.png"
       inkscape:export-xdpi="12.288"
       inkscape:export-ydpi="12.288">
      <g
         id="g1077"
         style="stroke-width:1.81844985;fill:#dadada;fill-opacity:1">
	<path
   id="path1071"
   d="m 152.217,256.537 -16.572,16.551 C 100.347,256.684 57.063,263.018 27.934,292.095 -1.194,321.17 -7.542,364.372 8.889,399.605 l 49.257,-49.142 46.218,46.135 -49.257,49.142 c 35.297,16.401 78.577,10.065 107.705,-19.01 29.125,-29.072 35.474,-72.268 19.05,-107.499 l 16.536,-16.515 z"
   inkscape:connector-curvature="0"
   style="stroke-width:1.81844985;fill:#dadada;fill-opacity:1" />

	<path
   id="path1073"
   d="m 302.789,198.457 16.566,-16.545 c 35.298,16.404 78.582,10.069 107.711,-19.007 29.128,-29.075 35.475,-72.277 19.045,-107.51 L 396.854,104.537 350.635,58.402 399.893,9.26 C 364.596,-7.141 321.316,-0.805 292.188,28.27 c -29.125,29.072 -35.474,72.268 -19.05,107.499 l -16.532,16.51 z"
   inkscape:connector-curvature="0"
   style="stroke-width:1.81844985;fill:#dadada;fill-opacity:1" />

	<path
   id="path1075"
   d="M 358.43,337.215 261.241,240.026 281.586,219.681 76.549,14.664 C 59.48,-2.463 31.73,-2.435 14.652,14.625 -2.475,31.752 -2.437,59.472 14.662,76.561 l 205.026,205.018 20.34,-20.34 97.19,97.19 7.565,31.645 63.102,63.102 45.294,-45.294 -63.102,-63.102 z"
   inkscape:connector-curvature="0"
   style="stroke-width:1.81844985;fill:#dadada;fill-opacity:1" />

</g>
      <g
         id="g1079"
         style="stroke-width:1.81844985;fill:#dadada;fill-opacity:1">
</g>
      <g
         id="g1081"
         style="stroke-width:1.81844985;fill:#dadada;fill-opacity:1">
</g>
      <g
         id="g1083"
         style="stroke-width:1.81844985;fill:#dadada;fill-opacity:1">
</g>
      <g
         id="g1085"
         style="stroke-width:1.81844985;fill:#dadada;fill-opacity:1">
</g>
      <g
         id="g1087"
         style="stroke-width:1.81844985;fill:#dadada;fill-opacity:1">
</g>
      <g
         id="g1089"
         style="stroke-width:1.81844985;fill:#dadada;fill-opacity:1">
</g>
      <g
         id="g1091"
         style="stroke-width:1.81844985;fill:#dadada;fill-opacity:1">
</g>
      <g
         id="g1093"
         style="stroke-width:1.81844985;fill:#dadada;fill-opacity:1">
</g>
      <g
         id="g1095"
         style="stroke-width:1.81844985;fill:#dadada;fill-opacity:1">
</g>
      <g
         id="g1097"
         style="stroke-width:1.81844985;fill:#dadada;fill-opacity:1">
</g>
      <g
         id="g1099"
         style="stroke-width:1.81844985;fill:#dadada;fill-opacity:1">
</g>
      <g
         id="g1101"
         style="stroke-width:1.81844985;fill:#dadada;fill-opacity:1">
</g>
      <g
         id="g1103"
         style="stroke-width:1.81844985;fill:#dadada;fill-opacity:1">
</g>
      <g
         id="g1105"
         style="stroke-width:1.81844985;fill:#dadada;fill-opacity:1">
</g>
      <g
         id="g1107"
         style="stroke-width:1.81844985;fill:#dadada;fill-opacity:1">
</g>
    </g>
    <g
       transform="matrix(1.5,0,0,1.5,-1319.8277,569.78484)"
       id="g3658">
      <g
         transform="rotate(90,1000.5253,480.59292)"
         id="g3634">
        <path
           inkscape:connector-curvature="0"
           d="m 628.93236,528.61822 c 7.5,-12.5 25,-27.5 37.5,-27.5 l 278.6825,160.82693 c 4.11647,6.65796 12.40666,21.07873 5.29642,41.57018 L 676.43236,866.11822 c -7.5,2.5 -40,0 -50,-25 z"
           id="path3590"
           style="fill:#404040;fill-opacity:1;fill-rule:evenodd;stroke:#404040;stroke-width:2;stroke-linecap:round;stroke-linejoin:round;stroke-miterlimit:4;stroke-dasharray:none;stroke-opacity:1" />
        <g
           transform="matrix(0.1910977,-0.3317217,0.1910977,0.3317217,536.57663,687.19304)"
           id="g3592"
           style="overflow:visible">
          <path
             inkscape:connector-curvature="0"
             d="M 71.459473,553.5 C 34.080566,553.5 3.5,522.91895 3.5,485.54004 V 71.459473 C 3.5,34.082031 34.080566,3.5 71.459473,3.5 H 485.54004 C 522.91797,3.5 553.5,34.082031 553.5,71.459473 V 485.54004 C 553.5,522.91895 522.91797,553.5 485.54004,553.5 Z"
             id="path3594"
             style="fill:#ffffff;fill-opacity:1;stroke:#000000;stroke-width:7" />
          <circle
             cx="278.5"
             cy="278.5"
             r="57.115234"
             id="circle3602"
             style="fill:#404040;fill-opacity:1;stroke:#000000;stroke-width:5;stroke-opacity:1" />
        </g>
        <g
           transform="matrix(-0.3828283,3.653872e-4,0.1917306,-0.3313563,856.93036,867.37351)"
           id="g3606"
           style="overflow:visible">
          <path
             inkscape:connector-curvature="0"
             d="M 71.459473,553.5 C 34.080566,553.5 3.5,522.91895 3.5,485.54004 V 71.459473 C 3.5,34.082031 34.080566,3.5 71.459473,3.5 H 485.54004 C 522.91797,3.5 553.5,34.082031 553.5,71.459473 V 485.54004 C 553.5,522.91895 522.91797,553.5 485.54004,553.5 Z"
             id="path3608"
             style="fill:#ffffff;fill-opacity:1;stroke:#000000;stroke-width:7" />
          <circle
             cx="117.02637"
             cy="439.97461"
             r="57.115234"
             id="circle3610"
             style="fill:#404040;fill-opacity:1;stroke:#000000;stroke-width:5;stroke-opacity:1" />
          <circle
             cx="439.97314"
             cy="117.02588"
             r="57.114746"
             id="circle3614"
             style="fill:#404040;fill-opacity:1;stroke:#000000;stroke-width:5;stroke-opacity:1" />
        </g>
        <g
           transform="matrix(0.1917306,0.3313563,-0.3828283,-3.653872e-4,852.73494,500.43371)"
           id="g3620"
           style="overflow:visible">
          <path
             inkscape:connector-curvature="0"
             d="M 71.459473,553.5 C 34.080566,553.5 3.5,522.91895 3.5,485.54004 V 71.459473 C 3.5,34.082031 34.080566,3.5 71.459473,3.5 H 485.54004 C 522.91797,3.5 553.5,34.082031 553.5,71.459473 V 485.54004 C 553.5,522.91895 522.91797,553.5 485.54004,553.5 Z"
             id="path3622"
             style="fill:#ffffff;fill-opacity:1;stroke:#000000;stroke-width:7" />
          <circle
             cx="117.02637"
             cy="439.97461"
             r="57.115234"
             id="circle3624"
             style="fill:#404040;fill-opacity:1;stroke:#000000;stroke-width:5;stroke-opacity:1" />
          <circle
             cx="439.97314"
             cy="117.02588"
             r="57.114746"
             id="circle3628"
             style="fill:#404040;fill-opacity:1;stroke:#000000;stroke-width:5;stroke-opacity:1" />
          <circle
             cx="278.5"
             cy="278.5"
             r="57.115234"
             id="circle3630"
             style="fill:#404040;fill-opacity:1;stroke:#000000;stroke-width:5;stroke-opacity:1" />
        </g>
      </g>
    </g>
    <g
       id="g1411"
       inkscape:export-filename="P:\Solutions\F0019.PikkaLang\Design\Images\PNG\Dice.png"
       inkscape:export-xdpi="5.0056877"
       inkscape:export-ydpi="5.0056877">
      <rect
         y="17.37583"
         x="1080.7114"
         height="611.70197"
         width="611.70203"
         id="rect1330"
         style="opacity:1;vector-effect:none;fill:none;fill-opacity:1;stroke:none;stroke-width:1.99999988;stroke-linecap:round;stroke-linejoin:round;stroke-miterlimit:4;stroke-dasharray:none;stroke-dashoffset:0;stroke-opacity:1" />
      <path
         inkscape:connector-curvature="0"
         d="m 1269.2147,52.89043 c 15.5241,-15.398958 46.5097,-30.735353 64.6814,-26.114244 L 1676.37,353.76868 c 5.4202,9.1171 11.5769,60.98442 -7.5815,75.45916 l -455.2915,131.8566 c -11.8272,0.86166 -58.1492,-14.78754 -63.4443,-54.82767 z"
         id="path3586"
         style="fill:#404040;fill-opacity:1;fill-rule:evenodd;stroke:#404040;stroke-width:3;stroke-linecap:round;stroke-linejoin:round;stroke-miterlimit:4;stroke-dasharray:none;stroke-opacity:1" />
      <g
         transform="matrix(0.40043817,-0.41158706,0.15517067,0.55288037,1076.3312,249.2725)"
         id="g3515"
         style="overflow:visible">
        <path
           inkscape:connector-curvature="0"
           d="M 71.459473,553.5 C 34.080566,553.5 3.5,522.91895 3.5,485.54004 V 71.459473 C 3.5,34.082031 34.080566,3.5 71.459473,3.5 H 485.54004 C 522.91797,3.5 553.5,34.082031 553.5,71.459473 V 485.54004 C 553.5,522.91895 522.91797,553.5 485.54004,553.5 Z"
           id="path3491"
           style="fill:#e6e6e6;fill-opacity:1;stroke:#ffffff;stroke-width:7" />
        <circle
           cx="278.5"
           cy="278.5"
           r="57.115234"
           id="circle3493"
           style="fill:#d40000;fill-opacity:1;stroke:#000000;stroke-width:5;stroke-opacity:1" />
      </g>
      <g
         transform="matrix(-0.55666398,-0.14099611,0.40122315,-0.41082189,1475.4282,629.63732)"
         id="g3558"
         style="overflow:visible">
        <path
           inkscape:connector-curvature="0"
           d="M 71.459473,553.5 C 34.080566,553.5 3.5,522.91895 3.5,485.54004 V 71.459473 C 3.5,34.082031 34.080566,3.5 71.459473,3.5 H 485.54004 C 522.91797,3.5 553.5,34.082031 553.5,71.459473 V 485.54004 C 553.5,522.91895 522.91797,553.5 485.54004,553.5 Z"
           id="path3566"
           style="fill:#666666;fill-opacity:1;stroke:#ffffff;stroke-width:7" />
        <circle
           cx="117.02637"
           cy="439.97461"
           r="57.115234"
           id="circle3560"
           style="fill:#ffb023;fill-opacity:1;stroke:#000000;stroke-width:5;stroke-opacity:1" />
        <circle
           cx="439.97461"
           cy="439.97461"
           r="57.115234"
           id="circle3562"
           style="fill:#ffb023;fill-opacity:1;stroke:#000000;stroke-width:5;stroke-opacity:1" />
        <circle
           cx="439.97314"
           cy="117.02588"
           r="57.114746"
           id="circle3564"
           style="fill:#ffb023;fill-opacity:1;stroke:#000000;stroke-width:5;stroke-opacity:1" />
        <circle
           cx="278.5"
           cy="278.5"
           r="57.115234"
           id="circle3568"
           style="fill:#ffb023;fill-opacity:1;stroke:#000000;stroke-width:5;stroke-opacity:1" />
        <circle
           cx="117.02588"
           cy="117.02563"
           r="57.115479"
           id="circle3570"
           style="fill:#ffb023;fill-opacity:1;stroke:#000000;stroke-width:5;stroke-opacity:1" />
      </g>
      <path
         style="fill:#b3b3b3;fill-opacity:1;stroke:#ffffff;stroke-width:3.73868585"
         id="path3580"
         d="m 1308.1825,55.512998 c -5.8395,-20.654954 6.3981,-33.208963 27.1955,-27.898972 l 230.3919,58.823647 c 20.7966,5.309782 42.5897,26.552527 48.4292,47.207477 l 64.6901,228.81395 c 5.8394,20.65441 -6.3985,33.20909 -27.1951,27.89931 l -230.3919,-58.82365 c -20.7974,-5.30999 -42.5902,-26.5534 -48.4296,-47.20782 z"
         inkscape:connector-curvature="0" />
      <ellipse
         ry="32.798008"
         rx="32.798004"
         transform="matrix(0.2720554,0.96228159,-0.96891752,-0.247384,0,0)"
         style="fill:#d40000;fill-opacity:1;stroke:#000000;stroke-width:2.87121344;stroke-opacity:1"
         id="circle3574"
         cy="-1502.9225"
         cx="-285.75757" />
      <ellipse
         ry="32.798008"
         rx="32.798004"
         transform="matrix(0.2720554,0.96228159,-0.96891752,-0.247384,0,0)"
         style="fill:#d40000;fill-opacity:1;stroke:#000000;stroke-width:2.87121344;stroke-opacity:1"
         id="circle3576"
         cy="-1502.9225"
         cx="-100.30692" />
      <circle
         transform="matrix(0.2720554,0.96228159,-0.96891752,-0.247384,0,0)"
         style="fill:#d40000;fill-opacity:1;stroke:#000000;stroke-width:2.87121344;stroke-opacity:1"
         id="circle3578"
         r="32.797726"
         cy="-1688.3735"
         cx="-100.30775" />
      <circle
         transform="matrix(0.2720554,0.96228159,-0.96891752,-0.247384,0,0)"
         style="fill:#d40000;fill-opacity:1;stroke:#000000;stroke-width:2.87121344;stroke-opacity:1"
         id="circle3584"
         r="32.798145"
         cy="-1688.3737"
         cx="-285.75787" />
    </g>
    <g
       id="g1473"
       transform="matrix(0.51599587,0,0,0.4456328,1047.6889,763.37502)"
       style="stroke-width:2.08539486;fill:#dadada;fill-opacity:1"
       inkscape:export-filename="P:\Solutions\F0019.PikkaLang\Design\Images\PNG\CopyToClipboard.png"
       inkscape:export-xdpi="12.288"
       inkscape:export-ydpi="12.288">
      <g
         id="g1416"
         style="stroke-width:2.08539486;fill:#dadada;fill-opacity:1">
	<g
   id="content-copy"
   style="stroke-width:2.08539486;fill:#dadada;fill-opacity:1">
		<path
   id="path1413"
   d="m 395.25,0 h -306 c -28.05,0 -51,22.95 -51,51 v 357 h 51 V 51 h 306 z m 76.5,102 h -280.5 c -28.05,0 -51,22.95 -51,51 v 357 c 0,28.05 22.95,51 51,51 h 280.5 c 28.05,0 51,-22.95 51,-51 V 153 c 0,-28.05 -22.95,-51 -51,-51 z m 0,408 H 191.25 V 153 h 280.5 z"
   inkscape:connector-curvature="0"
   style="stroke-width:2.08539486;fill:#dadada;fill-opacity:1" />

	</g>

</g>
      <g
         id="g1418"
         style="stroke-width:2.08539486;fill:#dadada;fill-opacity:1">
</g>
      <g
         id="g1420"
         style="stroke-width:2.08539486;fill:#dadada;fill-opacity:1">
</g>
      <g
         id="g1422"
         style="stroke-width:2.08539486;fill:#dadada;fill-opacity:1">
</g>
      <g
         id="g1424"
         style="stroke-width:2.08539486;fill:#dadada;fill-opacity:1">
</g>
      <g
         id="g1426"
         style="stroke-width:2.08539486;fill:#dadada;fill-opacity:1">
</g>
      <g
         id="g1428"
         style="stroke-width:2.08539486;fill:#dadada;fill-opacity:1">
</g>
      <g
         id="g1430"
         style="stroke-width:2.08539486;fill:#dadada;fill-opacity:1">
</g>
      <g
         id="g1432"
         style="stroke-width:2.08539486;fill:#dadada;fill-opacity:1">
</g>
      <g
         id="g1434"
         style="stroke-width:2.08539486;fill:#dadada;fill-opacity:1">
</g>
      <g
         id="g1436"
         style="stroke-width:2.08539486;fill:#dadada;fill-opacity:1">
</g>
      <g
         id="g1438"
         style="stroke-width:2.08539486;fill:#dadada;fill-opacity:1">
</g>
      <g
         id="g1440"
         style="stroke-width:2.08539486;fill:#dadada;fill-opacity:1">
</g>
      <g
         id="g1442"
         style="stroke-width:2.08539486;fill:#dadada;fill-opacity:1">
</g>
      <g
         id="g1444"
         style="stroke-width:2.08539486;fill:#dadada;fill-opacity:1">
</g>
      <g
         id="g1446"
         style="stroke-width:2.08539486;fill:#dadada;fill-opacity:1">
</g>
    </g>
    <g
       id="g1535"
       transform="matrix(0.54466231,0,0,0.54466231,323.06716,886.38783)"
       style="stroke-width:1.83599997;fill:#dadada;fill-opacity:1"
       inkscape:export-filename="P:\Solutions\F0019.PikkaLang\Design\Images\PNG\Default.png"
       inkscape:export-xdpi="12.288"
       inkscape:export-ydpi="12.288">
      <g
         id="g1478"
         style="stroke-width:1.83599997;fill:#dadada;fill-opacity:1">
	<g
   id="check-box-outline"
   style="stroke-width:1.83599997;fill:#dadada;fill-opacity:1">
		<path
   id="path1475"
   d="M 124.95,181.05 89.25,216.75 204,331.5 459,76.5 423.3,40.8 204,260.1 Z M 408,408 H 51 V 51 H 306 V 0 H 51 C 22.95,0 0,22.95 0,51 v 357 c 0,28.05 22.95,51 51,51 h 357 c 28.05,0 51,-22.95 51,-51 V 204 h -51 z"
   inkscape:connector-curvature="0"
   style="stroke-width:1.83599997;fill:#dadada;fill-opacity:1" />

	</g>

</g>
      <g
         id="g1480"
         style="stroke-width:1.83599997;fill:#dadada;fill-opacity:1">
</g>
      <g
         id="g1482"
         style="stroke-width:1.83599997;fill:#dadada;fill-opacity:1">
</g>
      <g
         id="g1484"
         style="stroke-width:1.83599997;fill:#dadada;fill-opacity:1">
</g>
      <g
         id="g1486"
         style="stroke-width:1.83599997;fill:#dadada;fill-opacity:1">
</g>
      <g
         id="g1488"
         style="stroke-width:1.83599997;fill:#dadada;fill-opacity:1">
</g>
      <g
         id="g1490"
         style="stroke-width:1.83599997;fill:#dadada;fill-opacity:1">
</g>
      <g
         id="g1492"
         style="stroke-width:1.83599997;fill:#dadada;fill-opacity:1">
</g>
      <g
         id="g1494"
         style="stroke-width:1.83599997;fill:#dadada;fill-opacity:1">
</g>
      <g
         id="g1496"
         style="stroke-width:1.83599997;fill:#dadada;fill-opacity:1">
</g>
      <g
         id="g1498"
         style="stroke-width:1.83599997;fill:#dadada;fill-opacity:1">
</g>
      <g
         id="g1500"
         style="stroke-width:1.83599997;fill:#dadada;fill-opacity:1">
</g>
      <g
         id="g1502"
         style="stroke-width:1.83599997;fill:#dadada;fill-opacity:1">
</g>
      <g
         id="g1504"
         style="stroke-width:1.83599997;fill:#dadada;fill-opacity:1">
</g>
      <g
         id="g1506"
         style="stroke-width:1.83599997;fill:#dadada;fill-opacity:1">
</g>
      <g
         id="g1508"
         style="stroke-width:1.83599997;fill:#dadada;fill-opacity:1">
</g>
    </g>
  </g>
</svg>
